<svg width="1000" height="1000" viewBox="0 0 1000 1000" fill="none" xmlns="http://www.w3.org/2000/svg">
<path fill-rule="evenodd" clip-rule="evenodd" d="M845.297 218.457C861.506 218.457 875 231.915 875 249.04V264.873C875 281.581 861.506 295.456 845.297 295.456H154.744C138.494 295.456 125 281.581 125 264.873V249.04C125 231.915 138.494 218.457 154.744 218.457H276.232C300.91 218.457 322.388 200.916 327.939 176.166L334.301 147.749C344.189 109.041 376.729 83.3334 413.97 83.3334H586.03C622.866 83.3334 655.771 109.041 665.293 145.708L672.101 176.124C677.612 200.916 699.09 218.457 723.809 218.457H845.297ZM783.576 797.251C796.26 679.044 818.466 398.214 818.466 395.38C819.277 386.797 816.481 378.672 810.929 372.13C804.972 366.006 797.435 362.381 789.128 362.381H211.188C202.841 362.381 194.898 366.006 189.387 372.13C183.795 378.672 181.039 386.797 181.445 395.38C181.519 395.901 182.316 405.793 183.648 422.331C189.566 495.799 206.049 700.424 216.7 797.251C224.237 868.584 271.041 913.417 338.836 915.042C391.151 916.25 445.047 916.667 500.158 916.667C552.068 916.667 604.788 916.25 658.725 915.042C728.87 913.833 775.633 869.792 783.576 797.251Z" fill="black"/>
</svg>
