<svg width="170" height="170" viewBox="0 0 170 170" fill="none" xmlns="http://www.w3.org/2000/svg">
<path fill-rule="evenodd" clip-rule="evenodd" d="M170 85C170 131.944 131.944 170 85 170C38.0558 170 0 131.944 0 85C0 38.0558 38.0558 0 85 0C131.944 0 170 38.0558 170 85ZM127.071 42.9289C130.976 46.8342 130.976 53.1658 127.071 57.0711L99.1421 85L126.571 112.429C130.476 116.334 130.476 122.666 126.571 126.571C122.666 130.476 116.334 130.476 112.429 126.571L85 99.1421L57.5711 126.571C53.6658 130.476 47.3342 130.476 43.4289 126.571C39.5237 122.666 39.5237 116.334 43.4289 112.429L70.8579 85L42.9289 57.0711C39.0237 53.1658 39.0237 46.8342 42.9289 42.9289C46.8342 39.0237 53.1658 39.0237 57.0711 42.9289L85 70.8579L112.929 42.9289C116.834 39.0237 123.166 39.0237 127.071 42.9289Z" fill="#F45050"/>
</svg>
