<svg width="1000" height="1000" viewBox="0 0 1000 1000" fill="none" xmlns="http://www.w3.org/2000/svg">
<path fill-rule="evenodd" clip-rule="evenodd" d="M674.625 563.208H674.083L485.375 560.167C468.292 559.875 454.625 545.958 454.625 528.917V326.917C454.625 309.667 468.625 295.667 485.875 295.667C503.125 295.667 517.125 309.667 517.125 326.917V498.125L675.125 500.708C692.375 501 706.125 515.208 705.875 532.458C705.583 549.542 691.625 563.208 674.625 563.208ZM500 93.75C276 93.75 93.75 276 93.75 500C93.75 724 276 906.25 500 906.25C724 906.25 906.25 724 906.25 500C906.25 276 724 93.75 500 93.75Z" fill="black"/>
</svg>
