<svg width="1000" height="1000" viewBox="0 0 1000 1000" fill="none" xmlns="http://www.w3.org/2000/svg">
<path d="M365.749 831.284V708.61C365.749 677.524 391.027 652.268 422.337 652.073H537.304C568.755 652.073 594.251 677.385 594.251 708.61V708.61V830.929C594.25 857.891 616.161 879.803 643.318 879.999H721.753C758.385 880.093 793.55 865.712 819.487 840.028C845.423 814.345 860 779.47 860 743.101V394.634C859.999 365.255 846.883 337.388 824.185 318.54L557.719 106.971C511.141 69.9649 444.615 71.1603 399.416 109.815L138.68 318.54C114.91 336.833 100.702 364.782 100 394.634V742.745C100 818.548 161.895 879.999 238.247 879.999H314.892C327.967 880.093 340.539 875.003 349.819 865.857C359.098 856.711 364.317 844.266 364.317 831.284H365.749Z" fill="black"/>
</svg>
