<?xml version="1.0" encoding="UTF-8"?>
<svg id="Layer_1" data-name="Layer 1" xmlns="http://www.w3.org/2000/svg" viewBox="0 0 2000 2018">
  <defs>
    <style>
      .cls-1 {
        fill: #fff;
      }

      .cls-2 {
        fill: #91b2ae;
      }
    </style>
  </defs>
  <path class="cls-2" d="m.09,1009C.09,674.2.1,339.39,0,4.59,0,.84.84,0,4.59,0c663.61.1,1327.21.1,1990.81,0,3.75,0,4.59.84,4.59,4.59-.1,669.61-.1,1339.21,0,2008.82,0,3.75-.84,4.59-4.59,4.59-663.6-.1-1327.21-.1-1990.81,0-3.75,0-4.59-.84-4.59-4.59.1-334.8.09-669.61.09-1004.41Zm1137.68,485.18c9.43.08,16.87-2.57,24.53-3.79,11.93-1.89,23.72-4.73,35.48-7.55,27.25-6.54,53.86-15.21,79.74-25.93,18.89-7.83,37.75-15.7,55.73-25.66,13.84-7.67,27.39-15.79,40.93-23.94,1.98-1.19,2.64-2.33,1.92-4.8-12.64-43.61-30.44-84.71-57.84-121.31-14.15-18.9-29.72-36.39-47.43-52.07-16.62-14.72-34.49-27.53-53.65-38.74-26.09-15.27-53.68-26.99-82.69-35.15-22.61-6.36-45.61-10.95-69.07-13.6-15.93-1.8-31.87-2.89-47.83-3.6-19.73-.88-39.45.11-59.17,1.75-12.64,1.06-25.25,2.38-37.74,4.34-21.46,3.37-42.56,8.33-63.14,15.63-12.56,4.46-25.19,8.71-37.37,14.12-14.89,6.61-29.14,14.44-42.88,23.21-25.94,16.55-49.14,36.28-69.49,59.42-18.3,20.82-33.78,43.53-46.62,68.03-12.76,24.35-22.03,50.08-29.94,76.36-1.03,3.43-.55,5.2,2.51,7.16,27.54,17.72,56.51,32.71,86.59,45.54,25.29,10.78,51.44,19.17,77.98,26.3,17.61,4.73,35.43,8.56,53.35,11.92,17.08,3.21,34.33,5.3,51.59,7.13,7.35.78,14.73,1.22,22.07,2.17,17.08,2.2,34.29,2.39,51.47,2.84,14.15.37,28.32.26,42.48.22,9.82-.03,19.66.02,29.46-.56,12.95-.77,25.88-2.56,38.77-3.2,9.74-.48,19.23-3.15,29.01-2.55,1.11.07,2.29-.38,3.4-.73,6.31-2.02,12.96-1.83,17.83-2.96Zm-134.29-466.3c18.38-.39,36.9-2.21,55.13-6.58,15.24-3.66,29.8-9.03,44.14-15.38,12.94-5.72,24.74-13.28,36.57-20.76,7.36-4.65,13.83-10.75,20.52-16.41,12.66-10.71,24.28-22.46,34.19-35.78,11.78-15.81,22.32-32.32,29.89-50.72,5-12.16,9.92-24.32,13.06-37.06,4.09-16.61,6.24-33.48,7.37-50.64.88-13.34-.25-26.42-1.44-39.49-1.14-12.52-3.89-24.88-7.56-37.06-5.61-18.63-12.57-36.53-22.04-53.6-15.32-27.61-35.64-50.72-59.93-70.66-22.6-18.55-48.06-31.86-75.5-41.39-19.49-6.77-39.87-9.58-60.36-11.62-14.17-1.41-28.23-.06-42.27,1.31-20.43,1.99-40.01,7.73-59.16,14.82-20.47,7.58-38.84,18.93-56.54,31.65-18.99,13.65-35.18,30.1-48.93,48.7-27.06,36.61-43.33,77.45-47.19,123.28-1.52,18.01-1.64,35.74.42,53.6,3.83,33.21,14.55,64.15,31.22,92.98,15.18,26.27,34.63,49.03,58.45,67.93,43.81,34.76,93.84,51.98,149.95,52.84Z"/>
  <path class="cls-1" d="m1137.77,1494.18c-4.87,1.13-11.52.94-17.83,2.96-1.1.35-2.28.8-3.4.73-9.78-.6-19.27,2.07-29.01,2.55-12.89.63-25.82,2.43-38.77,3.2-9.8.58-19.64.53-29.46.56-14.16.04-28.33.15-42.48-.22-17.18-.44-34.39-.63-51.47-2.84-7.35-.95-14.73-1.39-22.07-2.17-17.26-1.83-34.51-3.92-51.59-7.13-17.92-3.36-35.74-7.19-53.35-11.92-26.54-7.13-52.69-15.52-77.98-26.3-30.08-12.82-59.05-27.82-86.59-45.54-3.06-1.97-3.54-3.73-2.51-7.16,7.91-26.28,17.18-52.01,29.94-76.36,12.84-24.51,28.32-47.21,46.62-68.03,20.35-23.15,43.55-42.87,69.49-59.42,13.73-8.76,27.99-16.6,42.88-23.21,12.18-5.41,24.8-9.66,37.37-14.12,20.58-7.3,41.68-12.27,63.14-15.63,12.49-1.96,25.1-3.28,37.74-4.34,19.72-1.65,39.44-2.63,59.17-1.75,15.96.71,31.9,1.8,47.83,3.6,23.45,2.65,46.45,7.23,69.07,13.6,29.01,8.17,56.6,19.88,82.69,35.15,19.16,11.22,37.03,24.03,53.65,38.74,17.7,15.68,33.28,33.17,47.43,52.07,27.4,36.59,45.2,77.7,57.84,121.31.72,2.47.06,3.61-1.92,4.8-13.54,8.15-27.09,16.27-40.93,23.94-17.98,9.96-36.84,17.83-55.73,25.66-25.88,10.72-52.49,19.38-79.74,25.93-11.76,2.82-23.55,5.66-35.48,7.55-7.66,1.21-15.09,3.87-24.53,3.79Z"/>
  <path class="cls-1" d="m1003.49,1027.88c-56.11-.86-106.14-18.08-149.95-52.84-23.82-18.9-43.26-41.66-58.45-67.93-16.67-28.84-27.38-59.77-31.22-92.98-2.06-17.86-1.93-35.59-.42-53.6,3.86-45.83,20.13-86.67,47.19-123.28,13.75-18.6,29.93-35.05,48.93-48.7,17.7-12.72,36.07-24.08,56.54-31.65,19.16-7.09,38.73-12.82,59.16-14.82,14.04-1.37,28.09-2.72,42.27-1.31,20.49,2.04,40.86,4.85,60.36,11.62,27.44,9.53,52.89,22.83,75.5,41.39,24.29,19.94,44.62,43.05,59.93,70.66,9.47,17.07,16.43,34.97,22.04,53.6,3.67,12.18,6.42,24.53,7.56,37.06,1.19,13.07,2.32,26.14,1.44,39.49-1.13,17.16-3.28,34.03-7.37,50.64-3.14,12.74-8.05,24.9-13.06,37.06-7.57,18.4-18.12,34.9-29.89,50.72-9.91,13.31-21.53,25.07-34.19,35.78-6.69,5.66-13.16,11.76-20.52,16.41-11.83,7.47-23.63,15.03-36.57,20.76-14.34,6.35-28.91,11.72-44.14,15.38-18.23,4.38-36.75,6.19-55.13,6.58Z"/>
</svg>