<svg width="1000" height="1000" viewBox="0 0 1000 1000" fill="none" xmlns="http://www.w3.org/2000/svg">
<path fill-rule="evenodd" clip-rule="evenodd" d="M813.315 807.963C770.981 674.088 657.231 597.38 501.106 597.38H499.981C343.44 596.505 229.106 673.755 186.69 807.963L181.773 823.547L195.69 832.047C277.273 881.797 379.023 907.005 498.023 907.005C499.356 907.005 500.69 907.005 501.981 907.005C622.648 907.005 721.565 882.463 804.315 832.047L818.231 823.547L813.315 807.963Z" fill="black"/>
<path fill-rule="evenodd" clip-rule="evenodd" d="M500.003 504.539C613.461 504.539 705.795 412.247 705.795 298.789C705.795 185.289 613.461 92.9973 500.003 92.9973C386.545 92.9973 294.253 185.289 294.253 298.789C294.253 412.247 386.545 504.539 500.003 504.539Z" fill="black"/>
</svg>
