<svg width="1000" height="1000" viewBox="0 0 1000 1000" fill="none" xmlns="http://www.w3.org/2000/svg">
<path fill-rule="evenodd" clip-rule="evenodd" d="M156.352 440.897C156.352 279.188 287.935 147.647 449.643 147.647C611.31 147.647 742.893 279.188 742.893 440.897C742.893 602.605 611.31 734.188 449.643 734.188C287.935 734.188 156.352 602.605 156.352 440.897ZM926.977 876.688L735.352 685.563C791.852 619.688 826.227 534.313 826.227 440.897C826.227 233.272 657.268 64.3132 449.643 64.3132C241.977 64.3132 73.0184 233.272 73.0184 440.897C73.0184 648.563 241.977 817.522 449.643 817.522C533.893 817.522 611.518 789.355 674.31 742.397L868.143 935.688L926.977 876.688Z" fill="black"/>
</svg>
