<svg width="170" height="170" viewBox="0 0 170 170" fill="none" xmlns="http://www.w3.org/2000/svg">
<path fill-rule="evenodd" clip-rule="evenodd" d="M85 170C131.944 170 170 131.944 170 85C170 38.0559 131.944 0 85 0C38.0559 0 0 38.0559 0 85C0 131.944 38.0559 170 85 170ZM137.679 71.4424C141.789 67.7537 142.131 61.4312 138.442 57.3208C134.754 53.2107 128.431 52.8689 124.321 56.5576L64.0278 110.667L45.6472 88.8521C42.0886 84.6287 35.78 84.0896 31.5564 87.6484C27.333 91.207 26.7939 97.5156 30.3528 101.739L55.3811 131.444C57.1248 133.513 59.6331 134.788 62.3328 134.976C65.0325 135.164 67.6934 134.25 69.7075 132.442L137.679 71.4424Z" fill="#06A385"/>
</svg>
